<?xml version="1.0"?>
<svg width="100" height="125" xmlns="http://www.w3.org/2000/svg" xmlns:svg="http://www.w3.org/2000/svg" enable-background="new 0 0 100 100" version="1.1" xml:space="preserve">

 <g class="layer">
  <title>Layer 1</title>
  <g display="none" id="svg_1">
   <rect display="inline" height="99" id="svg_2" width="185" x="-192"/>
   <rect display="inline" height="30" id="svg_3" width="100" y="-36"/>
   <text display="inline" fill="#000000" font-family="&#x27;Helvetica&#x27;" font-size="2.4" id="svg_4" transform="matrix(1 0 0 1 66 -19.5)">http://thenounproject.com</text>
   <text display="inline" id="svg_5" transform="matrix(1 0 0 1 7.166 -24.5)">
    <tspan fill="#000000" font-family="&#x27;Helvetica-Bold&#x27;" font-size="6.16" id="svg_6" x="0" y="0">The Noun Project</tspan>
    <tspan fill="#000000" font-family="&#x27;Helvetica-Bold&#x27;" font-size="4" id="svg_7" x="1.12" y="4.8">Icon Template</tspan>
   </text>
   <text display="inline" fill="#000000" font-family="&#x27;Helvetica-Bold&#x27;" font-size="6.16" id="svg_8" transform="matrix(1 0 0 1 -178.5 10.5)">Reminders</text>
   <line display="inline" fill="#000000" id="svg_9" stroke="#FFFFFF" stroke-miterlimit="10" x1="8" x2="18" y1="-14.5" y2="-14.5"/>
   <line display="inline" fill="#000000" id="svg_10" stroke="#FFFFFF" stroke-miterlimit="10" x1="-179" x2="-162" y1="16.5" y2="16.5"/>
   <g display="inline" id="svg_11">
    <g id="svg_12">
     <g id="svg_13">
      <rect fill="#000000" height="8.64" id="svg_14" width="8.72" x="-170.8" y="31.32"/>
      <path d="m-164.46,42.31l4.75,0l0,-4.7l-4.75,0l0,4.7zm5.19,0.44l-5.63,0l0,-5.58l5.63,0l0,5.58l0,0zm-6.95,1.31l8.28,0l0,-8.2l-8.28,0l0,8.2l0,0zm8.72,0.44l-9.16,0l0,-9.08l9.16,0l0,9.08l0,0z" fill="#000000" id="svg_15"/>
      <polygon fill="#000000" id="svg_16" points="-166.149,44.133 -166.292,43.991 -158.013,35.787 -157.871,35.929     "/>
     </g>
    </g>
   </g>
   <rect display="inline" fill="none" height="32.5" id="svg_17" width="35" x="-179" y="58"/>
   <text display="inline" id="svg_18" transform="matrix(1 0 0 1 -179 60.1299)">
    <tspan fill="#000000" font-family="&#x27;Helvetica-Bold&#x27;" font-size="3" id="svg_19" x="0" y="0">Strokes</tspan>
    <tspan fill="#000000" font-family="&#x27;Helvetica&#x27;" font-size="2.4" id="svg_20" x="0" y="5">Try to keep strokes at 4px</tspan>
    <tspan fill="#000000" font-family="&#x27;Helvetica&#x27;" font-size="2.4" id="svg_21" x="0" y="10">Minimum stroke weight is 2px</tspan>
    <tspan fill="#000000" font-family="&#x27;Helvetica&#x27;" font-size="2.4" id="svg_22" x="0" y="14.5">For thicker strokes use even</tspan>
    <tspan fill="#000000" font-family="&#x27;Helvetica&#x27;" font-size="2.4" id="svg_23" x="0" y="17.5">numbers: 6px, 8px etc.</tspan>
    <tspan fill="#000000" font-family="&#x27;Helvetica-Bold&#x27;" font-size="2.4" id="svg_24" x="0" y="22">Remember to expand strokes</tspan>
    <tspan fill="#000000" font-family="&#x27;Helvetica-Bold&#x27;" font-size="2.4" id="svg_25" x="0" y="25">before saving as an SVG</tspan>
   </text>
   <rect display="inline" fill="none" height="32.5" id="svg_26" width="35" x="-136.5" y="58"/>
   <text display="inline" id="svg_27" transform="matrix(1 0 0 1 -136.5 60.1299)">
    <tspan fill="#000000" font-family="&#x27;Helvetica-Bold&#x27;" font-size="3" id="svg_28" x="0" y="0">Size</tspan>
    <tspan fill="#000000" font-family="&#x27;Helvetica&#x27;" font-size="2.4" id="svg_29" x="0" y="5">Cannot be wider or taller than</tspan>
    <tspan fill="#000000" font-family="&#x27;Helvetica&#x27;" font-size="2.4" id="svg_30" x="0" y="8.5">100px (artboard size)</tspan>
    <tspan fill="#000000" font-family="&#x27;Helvetica&#x27;" font-size="2.4" id="svg_31" x="0" y="13.5">Scale your icon to fill as much of</tspan>
    <tspan fill="#000000" font-family="&#x27;Helvetica&#x27;" font-size="2.4" id="svg_32" x="0" y="16.5">the artboard as possible</tspan>
   </text>
   <rect display="inline" fill="none" height="32.5" id="svg_33" width="35" x="-94" y="58"/>
   <text display="inline" id="svg_34" transform="matrix(1 0 0 1 -94 60.1299)">
    <tspan fill="#000000" font-family="&#x27;Helvetica-Bold&#x27;" font-size="3" id="svg_35" x="0" y="0">Ungroup</tspan>
    <tspan fill="#000000" font-family="&#x27;Helvetica&#x27;" font-size="2.4" id="svg_36" x="0" y="5">If your design has more than one</tspan>
    <tspan fill="#000000" font-family="&#x27;Helvetica&#x27;" font-size="2.4" id="svg_37" x="0" y="8">shape, make sure to ungroup</tspan>
   </text>
   <rect display="inline" fill="none" height="32.5" id="svg_38" width="35" x="-50" y="58"/>
   <text display="inline" id="svg_39" transform="matrix(1 0 0 1 -50 60.1299)">
    <tspan fill="#000000" font-family="&#x27;Helvetica-Bold&#x27;" font-size="3" id="svg_40" x="0" y="0">Save as</tspan>
    <tspan fill="#000000" font-family="&#x27;Helvetica&#x27;" font-size="2.4" id="svg_41" x="0" y="5">Save as .SVG and make sure “Use</tspan>
    <tspan fill="#000000" font-family="&#x27;Helvetica&#x27;" font-size="2.4" id="svg_42" x="0" y="8">Artboards” is checked</tspan>
   </text>
   <text display="inline" fill="#000000" font-family="&#x27;Helvetica&#x27;" font-size="2.57" id="svg_43" transform="matrix(1.0074 0 0 1 -125.542 30.5933)">100px</text>
   <text display="inline" fill="#000000" font-family="&#x27;Helvetica-Bold&#x27;" font-size="5.15" id="svg_44" transform="matrix(1.0074 0 0 1 -41 39)">.SVG</text>
   <rect display="inline" fill="#000000" height="10.19" id="svg_45" width="10.26" x="-126.51" y="34.81"/>
   <rect display="inline" fill="#000000" height="2.34" id="svg_46" width="0.52" x="-126.48" y="31.77"/>
   <rect display="inline" fill="#000000" height="2.34" id="svg_47" width="0.52" x="-116.81" y="31.77"/>
   <rect display="inline" fill="#000000" height="0.57" id="svg_48" width="11.23" x="-127" y="32.34"/>
   <g display="inline" id="svg_49">
    <rect fill="#000000" height="10.16" id="svg_50" width="10.3" x="-83.81" y="33.84"/>
    <rect fill="#000000" height="3.26" id="svg_51" width="3.31" x="-76.81" y="28.71"/>
   </g>
   <rect display="inline" fill="#000000" height="30" id="svg_52" stroke="#FFFFFF" stroke-miterlimit="10" width="30" x="-178.5" y="22.5"/>
   <rect display="inline" fill="#000000" height="30" id="svg_53" stroke="#FFFFFF" stroke-miterlimit="10" width="30" x="-136.5" y="22.5"/>
   <rect display="inline" fill="#000000" height="30" id="svg_54" stroke="#FFFFFF" stroke-miterlimit="10" width="30" x="-93.5" y="22.5"/>
   <rect display="inline" fill="#000000" height="30" id="svg_55" stroke="#FFFFFF" stroke-miterlimit="10" width="30" x="-49.5" y="22.5"/>
  </g>
  <g display="none" id="svg_56">
   <g display="inline" id="svg_57">
    <path clip-rule="evenodd" d="m33.3,99.72c-0.46,0 -0.84,0 -1.22,0c-1.25,0 -2.49,-0.01 -3.74,0c-0.28,0.01 -0.46,-0.09 -0.63,-0.3c-1.08,-1.39 -1.85,-2.94 -2.48,-4.56c-1.26,-3.2 -1.92,-6.54 -2.29,-9.94c-0.35,-3.15 -0.45,-6.31 -0.29,-9.47c0.27,-5.3 1.32,-10.42 3.75,-15.19c2.31,-4.55 5.64,-8.2 9.75,-11.18c3.44,-2.51 7.21,-4.45 11.11,-6.12c3.42,-1.47 6.87,-2.85 10.3,-4.31c2.72,-1.15 5.4,-2.41 7.82,-4.14c1.79,-1.28 3.35,-2.79 4.4,-4.76c0.83,-1.55 1.23,-3.21 1.29,-4.96c0.01,-0.11 0.01,-0.22 0.03,-0.44c0.1,0.2 0.17,0.31 0.22,0.43c1.39,2.97 2.15,6.11 2.4,9.37c0.62,8.09 -1.26,15.67 -4.87,22.85c-2.96,5.89 -6.97,10.96 -12.18,15.03c-4.9,3.84 -10.41,6.32 -16.56,7.33c-3.94,0.65 -7.87,0.61 -11.81,0.03c-0.24,-0.04 -0.28,-0.15 -0.27,-0.36c0.07,-1.58 0.52,-3.06 1.21,-4.47c1.2,-2.48 2.92,-4.58 4.84,-6.52c3.42,-3.48 7.31,-6.36 11.39,-8.99c0.97,-0.62 1.96,-1.2 2.94,-1.8c0.11,-0.07 0.22,-0.14 0.29,-0.27c-0.81,0.4 -1.62,0.79 -2.42,1.21c-4.48,2.3 -8.81,4.85 -12.78,7.98c-2.19,1.73 -4.25,3.61 -5.9,5.89c-1.03,1.42 -1.88,2.93 -2.17,4.68c-0.14,0.9 -0.14,1.82 -0.12,2.72c0.08,3.81 0.64,7.54 1.94,11.13c1.07,2.97 2.57,5.69 4.79,7.97c0.38,0.38 0.79,0.73 1.26,1.16z" fill-rule="evenodd" id="svg_58"/>
   </g>
   <path d="m62.64,69.82c-1.34,1.35 -2.74,2.62 -4.23,3.79c-5.23,4.08 -11.1,6.68 -17.48,7.73c-0.98,0.16 -1.98,0.28 -2.98,0.36c0.19,8.47 0.34,14.91 0.34,14.91s-0.21,1.86 1.2,2.46s8.82,0.93 9.97,0.93l1.78,0c1.16,0 8.18,-0.33 9.58,-0.93c1.41,-0.6 1.21,-2.44 1.21,-2.44s0.3,-13.29 0.61,-26.81z" display="inline" id="svg_59"/>
   <path d="m52.6,38.76c1.57,-0.64 3.13,-1.29 4.68,-1.95c1.74,-0.74 3.56,-1.56 5.31,-2.58c-0.11,-0.37 -0.23,-0.77 -0.36,-1.21c-1.11,-3.61 -5.97,-5.96 -6.57,-6.87c-0.03,-0.04 -0.05,-0.1 -0.07,-0.15l0,0c-0.03,-0.07 -0.06,-0.15 -0.09,-0.23c-0.01,-0.03 -0.02,-0.06 -0.03,-0.09c-0.01,-0.04 -0.02,-0.08 -0.03,-0.12c-0.42,-1.7 -0.53,-5.82 -0.53,-5.82s-0.31,-13.59 -0.31,-13.89s0.4,-0.65 0.4,-0.65l0,-2.36c0,0 -0.3,-0.45 -0.3,-0.7c0,-0.21 -0.08,-1.03 -0.31,-1.45c-0.02,-0.09 -0.05,-0.16 -0.12,-0.21c-0.35,-0.25 -2.51,-0.45 -2.51,-0.45s-0.42,-0.03 -1.48,-0.03c-0.04,0 -0.06,0 -0.1,0s-0.06,0 -0.1,0c-1.05,0 -1.46,0.03 -1.46,0.03s-0.21,0.02 -0.49,0.05c-0.67,0.08 -1.82,0.23 -2.07,0.4c-0.35,0.25 -0.57,1.41 -0.57,1.66c0,0.25 -0.49,0.7 -0.49,0.7l0,2.35c0,0 0.59,0.36 0.59,0.66s-0.11,13.89 -0.11,13.89s-0.14,5.02 -0.68,6.26c-0.02,0.05 -0.05,0.11 -0.07,0.15c-0.61,0.91 -5.51,3.26 -6.61,6.87c-1.1,3.61 -1.17,4.52 -1.07,8.68c0.01,0.61 0.03,2.26 0.09,4.61c2.81,-1.86 5.98,-3.54 9.83,-5.19c1.87,-0.8 3.75,-1.58 5.63,-2.36z" display="inline" id="svg_60"/>
  </g>
  <g display="none" id="svg_61">
   <g display="inline" id="svg_62">
    <path d="m38.65,53.39c0.05,-0.01 0.11,-0.02 0.16,-0.02c0.46,0 0.95,0.14 1.33,0.4l0.64,0.46c0.53,0.37 1.06,0.74 1.58,1.11c3.48,2.53 6.33,4.97 8.71,7.49c2.26,2.38 3.99,4.71 5.27,7.11c1.14,2.13 1.87,4.22 2.24,6.38c0.04,0.26 0.04,0.51 0.01,0.75c0.31,-0.09 0.61,-0.19 0.94,-0.27c0.41,-0.11 0.83,-0.19 1.26,-0.28c0.3,-13.48 0.84,-36.91 0.9,-39.54c0.09,-3.71 0.04,-4.52 -0.94,-7.74c-0.98,-3.22 -5.32,-5.32 -5.86,-6.13c-0.54,-0.8 -0.67,-5.72 -0.67,-5.72s-0.42,-12.12 -0.42,-12.39s0.2,-0.58 0.2,-0.58l0,-2.11c0,0 -0.12,-0.4 -0.12,-0.62s-0.03,-1.26 -0.34,-1.48c-0.32,-0.22 -2.21,-0.4 -2.21,-0.4s-0.49,-0.03 -1.43,-0.03c-0.95,0 -1.3,0.03 -1.3,0.03s-1.92,0.18 -2.24,0.4c-0.31,0.22 -0.27,1.25 -0.27,1.48s-0.09,0.62 -0.09,0.62l0,2.11c0,0 0.18,0.31 0.18,0.58s-0.38,12.39 -0.38,12.39s-0.16,4.92 -0.7,5.72s-4.89,2.91 -5.88,6.13c-0.98,3.23 -1.03,4.03 -0.94,7.74c0.03,1.36 0.18,8.22 0.37,16.41z" id="svg_63"/>
    <path d="m44.11,88.65c-0.02,-0.06 -0.05,-0.12 -0.08,-0.19" id="svg_64"/>
   </g>
   <g display="inline" id="svg_65">
    <path clip-rule="evenodd" d="m38.85,55.6c0.73,0.52 1.47,1.02 2.19,1.55c3,2.17 5.86,4.52 8.41,7.21c1.91,2.02 3.61,4.18 4.93,6.64c0.96,1.79 1.66,3.68 2,5.69c0.03,0.2 -0.01,0.28 -0.21,0.35c-1.73,0.64 -3.36,1.48 -4.8,2.65c-2.37,1.94 -3.73,4.44 -4.13,7.46c-0.12,0.94 -0.15,1.89 -0.1,2.84c0,0.05 0,0.11 -0.03,0.18c-0.03,-0.06 -0.06,-0.13 -0.09,-0.19c-1.37,-3.33 -2.47,-6.76 -3.44,-10.22c-1.21,-4.32 -2.22,-8.69 -2.99,-13.12c-0.02,-0.15 -0.05,-0.29 -0.09,-0.43c-0.3,4.83 -0.06,9.65 0.36,14.46c0.43,4.82 1.06,9.59 2.17,14.34c-0.48,-0.16 -0.93,-0.3 -1.38,-0.46c-2.18,-0.77 -4.25,-1.76 -6.15,-3.09c-2.2,-1.53 -4.03,-3.4 -5.31,-5.78c-0.97,-1.82 -1.51,-3.76 -1.66,-5.82c-0.2,-2.71 0.24,-5.35 1.05,-7.93c0.84,-2.71 2.04,-5.26 3.43,-7.73c1.68,-2.96 3.62,-5.74 5.69,-8.44c0.04,-0.05 0.08,-0.11 0.11,-0.16c0.01,0 0.03,0 0.04,0z" fill-rule="evenodd" id="svg_66"/>
    <path clip-rule="evenodd" d="m58.05,99.82c-0.36,-0.03 -0.72,-0.07 -1.08,-0.11c-0.96,-0.1 -1.9,-0.3 -2.83,-0.56c-0.03,0 -0.06,-0.02 -0.1,-0.04c2.34,-4.54 5.3,-8.59 9.04,-12.06c-4.64,2.57 -8.74,5.81 -12.33,9.77c-0.16,-0.53 -0.32,-1.01 -0.45,-1.5c-0.49,-1.74 -0.75,-3.52 -0.66,-5.33c0.18,-3.81 1.85,-6.76 5.07,-8.82c1.65,-1.06 3.47,-1.73 5.36,-2.21c2.37,-0.59 4.78,-0.87 7.22,-0.95c1.31,-0.04 2.62,-0.01 3.94,-0.01c0.06,0 0.13,0 0.21,0.01c0,0.11 0.01,0.22 0.01,0.32c0.06,2.2 0.02,4.4 -0.21,6.59c-0.28,2.63 -0.78,5.22 -1.84,7.67c-0.74,1.71 -1.72,3.25 -3.11,4.52c-1.64,1.49 -3.58,2.31 -5.76,2.6c-0.34,0.05 -0.67,0.08 -1.01,0.11c-0.49,0 -0.98,0 -1.47,0z" fill-rule="evenodd" id="svg_67"/>
   </g>
  </g>
  <g display="none" id="svg_68">
   <path clip-rule="evenodd" d="m83.33,44.24c0,5.12 -4.15,9.27 -9.27,9.27c-5.12,0 -9.27,-4.15 -9.27,-9.27s4.15,-9.27 9.27,-9.27c5.12,0 9.27,4.16 9.27,9.27z" display="inline" fill-rule="evenodd" id="svg_69"/>
   <path clip-rule="evenodd" d="m64.97,53.13c0,4.6 -3.73,8.33 -8.33,8.33c-4.6,0 -8.33,-3.73 -8.33,-8.33c0,-4.6 3.73,-8.33 8.33,-8.33c4.59,0 8.33,3.73 8.33,8.33z" display="inline" fill-rule="evenodd" id="svg_70"/>
   <circle clip-rule="evenodd" cx="38.09" cy="64.6" display="inline" fill-rule="evenodd" id="svg_71" r="8.34"/>
   <path clip-rule="evenodd" d="m61.56,71.2c0,4.18 -3.39,7.56 -7.57,7.56c-4.17,0 -7.56,-3.38 -7.56,-7.56c0,-4.18 3.39,-7.56 7.56,-7.56c4.18,0 7.57,3.38 7.57,7.56z" display="inline" fill-rule="evenodd" id="svg_72"/>
   <path clip-rule="evenodd" d="m78.99,64.6c0,4.81 -3.9,8.71 -8.71,8.71c-4.82,0 -8.72,-3.9 -8.72,-8.71c0,-4.82 3.9,-8.72 8.72,-8.72c4.81,0 8.71,3.9 8.71,8.72z" display="inline" fill-rule="evenodd" id="svg_73"/>
   <path clip-rule="evenodd" d="m49.06,82.47c0,4.29 -3.47,7.76 -7.76,7.76c-4.28,0 -7.76,-3.47 -7.76,-7.76c0,-4.28 3.48,-7.76 7.76,-7.76c4.29,0 7.76,3.48 7.76,7.76z" display="inline" fill-rule="evenodd" id="svg_74"/>
   <circle clip-rule="evenodd" cx="64.97" cy="80.39" display="inline" fill-rule="evenodd" id="svg_75" r="5.68"/>
   <circle clip-rule="evenodd" cx="55.51" cy="92.13" display="inline" fill-rule="evenodd" id="svg_76" r="7.57"/>
   <path clip-rule="evenodd" d="m70.07,25.48c-1.19,-0.44 -2.31,-1.07 -3.23,-1.89c-0.46,-0.41 -0.87,-0.86 -1.2,-1.36c1.09,-0.39 2.09,-0.95 3.01,-1.57l0.02,-0.01c0.05,-0.03 0.09,-0.07 0.13,-0.11c0.24,-0.31 0.46,-0.65 0.6,-1.05c0.14,-0.4 0.19,-0.85 0.12,-1.28c-0.13,-0.86 -0.65,-1.55 -1.26,-2.01c-0.61,-0.46 -1.35,-0.77 -2.16,-0.78c-0.41,0 -0.84,0.09 -1.23,0.31c-0.38,0.21 -0.68,0.56 -0.87,0.93l-0.01,0.02c-0.02,0.03 -0.03,0.05 -0.03,0.08c-0.18,0.66 -0.29,1.35 -0.29,2.05c0,0.69 0.11,1.39 0.33,2.05c0.03,0.1 0.09,0.19 0.12,0.29c-0.79,0.13 -1.56,0.07 -2.22,-0.26c-0.86,-0.43 -1.49,-1.3 -1.88,-2.3c-0.4,-1.01 -0.6,-2.13 -0.67,-3.26c-0.05,-0.91 0.01,-1.84 0.13,-2.74c0.92,0.19 1.86,0.32 2.82,0.34c0.87,0 1.76,-0.04 2.67,-0.46c0.44,-0.21 0.93,-0.63 1.1,-1.23c0.17,-0.59 0.04,-1.15 -0.13,-1.6c-0.01,-0.01 -0.02,-0.03 -0.03,-0.05l-0.01,-0.02c-0.31,-0.54 -0.63,-1.08 -1.04,-1.58c-0.41,-0.5 -0.88,-0.99 -1.55,-1.34c-0.63,-0.37 -1.61,-0.47 -2.32,-0.07c-0.73,0.35 -1.19,0.92 -1.55,1.48c-0.68,1.07 -1.03,2.22 -1.27,3.37c-0.21,-0.05 -0.42,-0.1 -0.63,-0.15c-0.5,-0.13 -1,-0.29 -1.5,-0.46c0.1,-0.3 0.22,-0.6 0.36,-0.89c2.04,-2.53 3.22,-5.53 2.83,-9.09c-0.12,-1.12 -3.06,-0.45 -2.92,0.78c0.22,2.07 -0.17,3.92 -0.98,5.58c-0.61,0.76 -1.12,1.55 -1.52,2.36c-0.07,0.09 -0.14,0.17 -0.22,0.26c-0.19,-0.1 -0.39,-0.19 -0.58,-0.29c-1.42,-0.79 -2.78,-1.77 -3.72,-3.13c0.79,1.46 2.11,2.59 3.5,3.49c0.16,0.1 0.33,0.19 0.49,0.29c-3.24,3.56 -8.45,6.02 -12.89,7.78c-0.84,-0.27 -1.74,-0.42 -2.67,-0.42c-4.82,0 -8.72,3.9 -8.72,8.72c0,0.23 0.01,0.45 0.03,0.67c-0.52,-0.12 -1.06,-0.2 -1.62,-0.2c-3.77,0 -6.82,3.05 -6.82,6.81c0,3.77 3.05,6.82 6.82,6.82c3.53,0 6.43,-2.69 6.78,-6.13c1.08,0.47 2.27,0.75 3.53,0.75c4.81,0 8.71,-3.91 8.71,-8.72c0,-3.04 -1.56,-5.71 -3.92,-7.27c3.4,-1.41 7.1,-3.2 10.15,-5.51c-0.43,3.62 0.66,7.44 2.35,11.07c-3.47,1.28 -5.95,4.6 -5.95,8.52c0,5.01 4.07,9.08 9.09,9.08c5.02,0 9.09,-4.07 9.09,-9.08c0,-5.02 -4.07,-9.09 -9.09,-9.09c-0.05,0 -0.09,0.01 -0.14,0.01c-2.01,-4.14 -3.29,-8.59 -2.18,-12.53c0.49,0.2 0.99,0.4 1.5,0.56c0.23,0.08 0.46,0.14 0.7,0.21c-0.16,1.05 -0.23,2.11 -0.17,3.18c0.06,1.25 0.27,2.52 0.76,3.74c0.48,1.19 1.32,2.42 2.63,3.06c1.16,0.57 2.46,0.55 3.59,0.28c0.43,0.63 0.96,1.18 1.56,1.63c1.07,0.81 2.3,1.36 3.56,1.71c1.26,0.36 2.57,0.5 3.86,0.43c-1.29,-0.08 -2.55,-0.35 -3.75,-0.78zm-9.43,-16.67c0.27,-0.44 0.61,-0.82 0.96,-1c0.35,-0.19 0.7,-0.18 1.11,0.02c0.41,0.2 0.81,0.56 1.16,0.98c0.34,0.41 0.66,0.86 0.95,1.33c0.13,0.3 0.18,0.58 0.13,0.78c-0.04,0.21 -0.21,0.4 -0.5,0.56c-0.57,0.32 -1.38,0.43 -2.15,0.45c-0.89,0.02 -1.79,-0.07 -2.69,-0.21c0.2,-1.04 0.53,-2.06 1.03,-2.91zm4.35,12.13c-0.04,-0.12 -0.1,-0.23 -0.13,-0.35c-0.32,-1.13 -0.23,-2.33 0.12,-3.45c0.24,-0.39 0.62,-0.57 1.09,-0.55c0.49,0.03 1.01,0.26 1.41,0.59c0.4,0.34 0.69,0.78 0.74,1.22c0.06,0.4 -0.1,0.81 -0.4,1.18c-0.91,0.58 -1.86,1.06 -2.83,1.36z" display="inline" fill-rule="evenodd" id="svg_77"/>
   <path clip-rule="evenodd" d="m39.79,35.44c-4.54,0 -8.27,3.44 -8.74,7.85c-1.1,-0.54 -2.34,-0.86 -3.64,-0.86c-4.56,0 -8.25,3.69 -8.25,8.24c0,4.55 3.69,8.24 8.25,8.24c4.11,0 7.51,-3.03 8.13,-6.97c1.26,0.7 2.71,1.1 4.25,1.1c4.86,0 8.8,-3.94 8.8,-8.8c0,-4.86 -3.94,-8.8 -8.8,-8.8z" display="inline" fill-rule="evenodd" id="svg_78"/>
  </g>
  <g display="none" id="svg_79">
   <path clip-rule="evenodd" d="m62,93.38c0,0.13 0,0.26 0,0.38c-0.11,0.66 -0.19,1.32 -0.34,1.97c-0.57,2.42 -1.64,3.45 -4.04,3.75c-2.63,0.33 -5.26,0.51 -7.89,0.5l0,0c-0.04,0 -0.07,0 -0.1,0c-0.03,0 -0.06,0 -0.1,0l0,0c-2.63,0.01 -5.26,-0.17 -7.88,-0.5c-2.41,-0.3 -3.48,-1.33 -4.05,-3.75c-0.15,-0.65 -0.23,-1.31 -0.34,-1.97c0,-0.12 0,-0.25 0,-0.38c0.07,-0.34 0.19,-0.68 0.2,-1.02c0.1,-2.2 0.22,-4.39 0.23,-6.59c0.07,-13.41 0.11,-26.82 0.17,-40.23c0.01,-3.52 1.38,-6.39 4.01,-8.74c2.1,-1.87 3.17,-4.28 2.63,-7.12c-0.72,-3.84 -0.33,-7.63 0.4,-11.39c0.38,-1.97 0.98,-3.87 0.63,-5.92c-0.14,-0.8 -0.07,-1.66 0.02,-2.48c0.08,-0.76 0.31,-1.44 0,-2.27c-0.28,-0.74 -0.38,-1.71 -0.14,-2.44c0.38,-1.16 0.38,-2.29 0.28,-3.44c-0.06,-0.58 0.14,-0.91 0.74,-1c0.65,-0.11 1.3,-0.25 1.95,-0.37c0.39,0 0.77,0 1.15,0c0.07,0 0.13,0 0.19,0c0.39,0 0.77,0 1.16,0c0.65,0.12 1.3,0.26 1.95,0.37c0.6,0.09 0.8,0.42 0.74,1c-0.1,1.15 -0.1,2.28 0.28,3.44c0.24,0.73 0.14,1.7 -0.14,2.44c-0.31,0.83 -0.08,1.51 0,2.27c0.09,0.82 0.16,1.68 0.02,2.48c-0.35,2.05 0.24,3.95 0.63,5.92c0.73,3.76 1.12,7.55 0.4,11.39c-0.54,2.84 0.52,5.25 2.62,7.12c2.64,2.35 4.01,5.22 4.02,8.74c0.05,13.41 0.1,26.82 0.16,40.23c0.02,2.2 0.14,4.39 0.23,6.59c0.02,0.34 0.14,0.68 0.21,1.02zm-3.25,-43.36c0,-0.24 -0.01,-0.49 -0.02,-0.86c-0.7,0.22 -1.39,0.4 -2.09,0.57c-1.27,-2.07 -3.93,-3.5 -7.01,-3.5c-3.08,0 -5.71,1.43 -6.99,3.5c-0.71,-0.17 -1.1,-0.35 -2.1,-0.57c0,0.49 0,0.79 0,1.09c0,11.56 0,23.12 0,34.67c0,2.12 -0.02,2.11 0.89,2.52c3.12,1.44 6.27,1.85 9.46,1.68c2.54,-0.14 5.06,-0.68 7.54,-1.97c0.24,-0.12 0.33,-0.3 0.33,-0.91c-0.01,-12.07 -0.01,-24.14 -0.01,-36.22zm-9.12,-14.57c-2.87,0 -5.2,1.46 -5.2,3.25s2.33,3.25 5.2,3.25c2.87,0 5.2,-1.45 5.2,-3.25s-2.33,-3.25 -5.2,-3.25z" display="inline" fill-rule="evenodd" id="svg_80"/>
  </g>
  <g display="none" id="svg_81">
   <path clip-rule="evenodd" d="m65.78,44.87c-0.18,15.04 -0.36,30.07 -0.46,45.11c-0.02,1.37 0.42,2.75 0.65,4.13c0,0.88 0,1.76 0,2.64c-0.46,1.55 -1.25,2.76 -3.05,2.92c-1.25,0.11 -2.51,0.34 -3.76,0.33c-3.01,-0.03 -6.02,-0.07 -9.02,-0.11c-3.01,0.04 -6.02,0.08 -9.02,0.11c-1.26,0.01 -2.51,-0.22 -3.76,-0.33c-1.81,-0.16 -2.59,-1.37 -3.06,-2.92c0,-0.88 0,-1.76 0,-2.64c0.23,-1.38 0.67,-2.76 0.66,-4.13c-0.11,-15.04 -0.29,-30.07 -0.46,-45.11c0,-0.32 -0.13,-0.64 -0.2,-0.95c0,-2.54 0,-5.07 0,-7.6c0.28,-0.99 0.49,-2.01 0.86,-2.96c1.21,-3.15 3.5,-5.25 6.6,-6.46c1.67,-0.65 2.35,-1.9 2.38,-3.56c0.04,-2.24 0.06,-4.49 -0.04,-6.72c-0.12,-2.92 -0.4,-5.83 -0.53,-8.75c-0.08,-1.7 0,-3.4 0.01,-5.1c0.01,-1.18 0.7,-1.84 1.74,-2.11c1.55,-0.4 3.1,-0.59 4.65,-0.61l0,0c0.06,0 0.11,0 0.17,0s0.11,0 0.16,0l0,0c1.55,0.02 3.11,0.21 4.65,0.61c1.04,0.27 1.74,0.93 1.74,2.11c0.01,1.7 0.09,3.4 0.02,5.1c-0.14,2.92 -0.42,5.83 -0.54,8.75c-0.09,2.23 -0.07,4.48 -0.03,6.72c0.03,1.66 0.71,2.91 2.38,3.56c3.1,1.21 5.39,3.31 6.6,6.46c0.37,0.95 0.57,1.97 0.85,2.96c0,2.53 0,5.06 0,7.59c-0.07,0.32 -0.19,0.64 -0.19,0.96zm-28.37,-0.35c0,12.32 0,24.64 0,36.95c0,2.25 0,2.24 1.25,2.68c4.37,1.53 8.78,1.97 13.21,1.79c3.55,-0.15 7.07,-0.72 10.54,-2.1c0.33,-0.13 0.46,-0.32 0.46,-0.97c-0.01,-12.86 -0.01,-25.73 -0.01,-38.59c0,-0.26 -0.02,-0.52 -0.03,-0.92c-8.48,2.02 -16.91,2.01 -25.43,0c0.01,0.53 0.01,0.85 0.01,1.16z" display="inline" fill-rule="evenodd" id="svg_82"/>
  </g>
  <g display="none" id="svg_83">
   <g display="inline" id="svg_84">
    <path d="m45.69,40.7c0,0.03 -0.01,0.06 -0.01,0.09l-0.09,0.64c-0.1,0.87 -0.05,1.73 0.15,2.64c0.19,0.86 0.49,1.61 0.93,2.31c0.39,0.61 0.82,1.09 1.32,1.45c0.51,0.38 0.99,0.57 1.5,0.6c0.45,0.04 0.89,-0.07 1.32,-0.33c0.35,-0.21 0.65,-0.5 0.94,-0.89c0.41,-0.56 0.69,-1.22 0.88,-2.01c0.1,-0.43 0.16,-0.85 0.18,-1.26c0.06,-1.22 -0.12,-2.34 -0.57,-3.44c-0.35,-0.87 -0.82,-1.58 -1.42,-2.16c-0.49,-0.46 -0.98,-0.75 -1.52,-0.89c-0.39,-0.11 -0.74,-0.11 -1.11,-0.02c-0.45,0.12 -0.84,0.36 -1.22,0.75c-0.45,0.46 -0.79,1.04 -1.05,1.78c-0.03,0.08 -0.07,0.19 -0.12,0.29l-0.11,0.45z" fill="#000000" id="svg_85"/>
   </g>
   <g display="inline" id="svg_86">
    <path d="m24.07,15.71c1.5,-0.26 2.97,-0.39 4.38,-0.39c6.78,0 12.66,3.01 17.48,8.95c0.49,0.6 0.96,1.21 1.48,1.88l1.72,2.23l1.08,-4.82c1.74,-7.64 6.01,-13.05 12.7,-16.1c3.03,-1.38 6.2,-2.08 9.4,-2.08c9.2,0 17.77,5.91 20.83,14.37c2.64,7.32 2.36,14.92 -0.85,22.6c-0.15,0.35 -0.31,0.69 -0.46,1.03c0.39,-0.08 0.78,-0.15 1.18,-0.19c1.12,-0.11 2.21,-0.03 3.25,0.24c0.34,0.09 0.67,0.21 0.99,0.34c2.4,-6 3.26,-11.82 2.6,-17.7c-0.1,-0.9 -0.23,-1.81 -0.35,-2.71l-0.19,-1.36l-0.12,-0.5c-0.22,-0.59 -0.43,-1.19 -0.65,-1.78c-0.46,-1.32 -0.94,-2.68 -1.56,-3.96c-4.51,-9.4 -14.16,-15.46 -24.58,-15.46c-1.22,0 -2.45,0.08 -3.65,0.25c-10.06,1.41 -17.39,6.93 -21.81,16.4c-0.07,0.16 -0.14,0.32 -0.21,0.48c-0.28,-0.2 -0.55,-0.41 -0.82,-0.62c-1.11,-0.87 -2.17,-1.68 -3.33,-2.41c-5.44,-3.39 -11.49,-4.73 -17.96,-3.98c-12.81,1.48 -25.31,12.96 -24.07,29.59c0.06,0.76 0.15,1.52 0.23,2.28l0.13,1.11l0.21,0.9c0.04,0.13 0.09,0.25 0.14,0.37c0.08,0.21 0.16,0.41 0.22,0.63c1.16,4.53 3.15,8.77 5.9,12.57c3.49,4.84 8.06,8.9 13.96,12.44c4.41,2.65 8.97,5.21 13.38,7.68c2.49,1.4 4.97,2.79 7.44,4.2c7.81,4.48 13.88,8.74 19.12,13.42c0.67,0.6 1.33,1.2 2.02,1.83l1.71,1.55l0.57,-1.44c0.11,-0.28 0.21,-0.52 0.3,-0.77c1.68,-4.54 3.84,-9.14 6.4,-13.67c-1.27,-0.46 -2.4,-1.05 -3.34,-1.58l-1.18,-0.65c-0.04,-0.03 -0.08,-0.05 -0.12,-0.07c-1.63,2.88 -3.15,5.88 -4.5,9c-0.05,0.13 -0.11,0.26 -0.17,0.39l-1.2,-0.94c-1.31,-1.03 -2.59,-2.04 -3.88,-3.02c-5.97,-4.52 -12.59,-8.31 -18.33,-11.51l-2.63,-1.47c-4.32,-2.41 -8.8,-4.89 -13.09,-7.5c-6.01,-3.66 -10.42,-7.78 -13.47,-12.61c-1.66,-2.62 -2.94,-5.68 -3.93,-9.34c-1.4,-5.21 -1.14,-9.95 0.81,-14.5c3.27,-7.65 8.93,-12.22 16.82,-13.6z" id="svg_87"/>
   </g>
   <g display="inline" id="svg_88">
    <g id="svg_89">
     <path clip-rule="evenodd" d="m73.67,80.59c-0.07,-0.03 -0.15,-0.06 -0.22,-0.09c-1.09,-0.38 -2.12,-0.9 -3.13,-1.46c-0.98,-0.55 -1.95,-1.1 -2.93,-1.64c-0.73,-0.4 -1.48,-0.76 -2.25,-1.08c-0.91,-0.37 -1.84,-0.66 -2.81,-0.85c-0.7,-0.14 -1.41,-0.2 -2.13,-0.24c-1.23,-0.06 -2.46,-0.02 -3.69,0c-1.01,0.02 -2.01,0.03 -3.02,-0.03c-0.69,-0.04 -1.38,-0.12 -2.06,-0.26c-0.83,-0.17 -1.63,-0.44 -2.39,-0.83c-1.12,-0.6 -2.01,-1.46 -2.71,-2.52c-1.03,-1.55 -1.53,-3.26 -1.46,-5.13c0.02,-0.85 0.17,-1.68 0.43,-2.49c0.48,-1.57 1.3,-2.96 2.35,-4.21c1.06,-1.25 2.31,-2.29 3.7,-3.16c0.54,-0.34 1.09,-0.64 1.65,-0.92c1.18,-0.6 2.27,-1.33 3.32,-2.13c1.12,-0.85 2.18,-1.77 3.25,-2.69c0.91,-0.78 1.82,-1.56 2.78,-2.29c0.78,-0.58 1.58,-1.12 2.45,-1.56c0.93,-0.47 1.89,-0.81 2.93,-0.92c0.81,-0.09 1.61,-0.04 2.4,0.14c1.19,0.28 2.31,0.71 3.35,1.35c1.13,0.7 2.03,1.62 2.74,2.74c0.57,0.9 1.01,1.86 1.38,2.86c0.38,1.05 0.73,2.12 1.09,3.18c0.38,1.12 0.78,2.23 1.26,3.31c0.55,1.22 1.2,2.39 1.96,3.49c0.99,1.43 1.78,2.96 2.32,4.62c0.45,1.34 0.7,2.72 0.7,4.14c0,0.99 -0.12,1.96 -0.4,2.9c-0.61,2.03 -1.77,3.66 -3.58,4.79c-1.43,0.89 -2.99,1.37 -4.69,1.39c-0.44,0 -0.88,-0.05 -1.32,-0.11c-0.04,-0.01 -0.08,0 -0.12,-0.01c-0.39,-0.09 -0.77,-0.19 -1.15,-0.29z" fill-rule="evenodd" id="svg_90"/>
    </g>
    <g id="svg_91">
     <path clip-rule="evenodd" d="m86.56,28.97c0.11,0.04 0.21,0.08 0.32,0.13c1.07,0.43 1.91,1.15 2.55,2.11c0.65,0.99 0.99,2.09 1.13,3.26c0.12,0.93 0.09,1.85 -0.05,2.78c-0.37,2.37 -1.34,4.47 -2.87,6.32c-0.82,0.99 -1.78,1.82 -2.89,2.47c-0.99,0.58 -2.04,0.97 -3.18,1.09c-0.79,0.09 -1.57,0.04 -2.32,-0.2c-1.6,-0.5 -2.72,-1.55 -3.44,-3.04c-0.49,-1.02 -0.71,-2.1 -0.76,-3.22c-0.04,-0.73 0,-1.46 0.13,-2.18c0.49,-2.83 1.76,-5.24 3.83,-7.23c0.97,-0.93 2.08,-1.65 3.34,-2.11c0.9,-0.33 1.82,-0.5 2.77,-0.44c0.19,0.01 0.38,0.04 0.56,0.06c0.04,0 0.08,0 0.11,0c0.26,0.07 0.52,0.13 0.77,0.2z" fill-rule="evenodd" id="svg_92"/>
    </g>
    <g id="svg_93">
     <path clip-rule="evenodd" d="m43.1,39.29c0.04,-0.09 0.09,-0.18 0.13,-0.28c0.37,-1.05 0.91,-2.01 1.69,-2.82c0.71,-0.74 1.56,-1.27 2.56,-1.52c0.85,-0.22 1.71,-0.21 2.56,0.01c1.06,0.29 1.96,0.84 2.75,1.6c0.94,0.89 1.62,1.96 2.1,3.15c0.61,1.49 0.86,3.05 0.78,4.65c-0.03,0.6 -0.12,1.19 -0.26,1.78c-0.26,1.09 -0.68,2.11 -1.35,3.03c-0.48,0.67 -1.06,1.23 -1.77,1.66c-0.92,0.56 -1.92,0.81 -2.99,0.74c-1.12,-0.08 -2.1,-0.5 -3,-1.15c-0.83,-0.61 -1.5,-1.37 -2.05,-2.25c-0.62,-0.99 -1.05,-2.06 -1.3,-3.2c-0.26,-1.19 -0.34,-2.39 -0.19,-3.59c0.03,-0.25 0.06,-0.49 0.09,-0.73c0.01,-0.02 0,-0.05 -0.01,-0.07c0.09,-0.33 0.18,-0.67 0.26,-1.01z" fill-rule="evenodd" id="svg_94"/>
    </g>
    <g id="svg_95">
     <path clip-rule="evenodd" d="m57.88,30.51c0.33,-1.29 0.85,-2.51 1.63,-3.61c0.59,-0.84 1.29,-1.57 2.16,-2.13c0.93,-0.6 1.95,-0.95 3.07,-0.95c1.18,0 2.24,0.37 3.2,1.05c0.8,0.58 1.44,1.31 1.96,2.14c0.89,1.45 1.36,3.03 1.51,4.71c0.09,0.97 0.07,1.93 -0.07,2.9c-0.05,0.38 -0.13,0.75 -0.21,1.13c-0.15,0.7 -0.37,1.36 -0.66,2.01c-0.62,1.42 -1.47,2.66 -2.7,3.62c-0.81,0.63 -1.72,1.07 -2.75,1.23c-0.88,0.14 -1.74,0.05 -2.58,-0.24c-1.08,-0.39 -1.96,-1.07 -2.7,-1.94c-0.69,-0.82 -1.18,-1.73 -1.55,-2.73c-0.54,-1.48 -0.75,-3.01 -0.69,-4.57c0.04,-0.88 0.16,-1.75 0.38,-2.62z" fill-rule="evenodd" id="svg_96"/>
    </g>
    <g id="svg_97">
     <path clip-rule="evenodd" d="m84.84,53.61c0.34,-1.31 0.96,-2.53 1.81,-3.64c0.77,-1 1.68,-1.85 2.75,-2.53c1.19,-0.76 2.48,-1.27 3.89,-1.41c0.76,-0.07 1.51,-0.03 2.24,0.16c1.38,0.37 2.45,1.15 3.19,2.37c0.48,0.79 0.73,1.66 0.81,2.58c0.06,0.64 0.04,1.29 -0.08,1.92c-0.08,0.44 -0.2,0.88 -0.32,1.31c-0.15,0.52 -0.37,1.01 -0.62,1.5c-0.87,1.67 -2.09,3.04 -3.67,4.09c-1.12,0.75 -2.35,1.25 -3.69,1.44c-0.76,0.11 -1.51,0.1 -2.26,-0.05c-1.11,-0.23 -2.07,-0.74 -2.85,-1.58c-0.66,-0.71 -1.08,-1.55 -1.3,-2.5c-0.19,-0.8 -0.22,-1.62 -0.13,-2.44c0.05,-0.39 0.12,-0.79 0.23,-1.22z" fill-rule="evenodd" id="svg_98"/>
    </g>
   </g>
  </g>
  <g display="none" id="svg_99">
   <path clip-rule="evenodd" d="m100,18.23l-4.74,0l0,80.31c0,0.81 -0.65,1.46 -1.46,1.46l-24.06,0c0.07,-0.29 0.13,-0.59 0.13,-0.9l0,-41.43l2.49,-0.01c0.96,0 1.81,-0.61 2.12,-1.51c0.31,-0.91 0.01,-1.91 -0.75,-2.5l-15.95,-12.37l0,-23.05l-4.74,0l23.63,-18.09l23.33,18.09zm-18.44,2.58l-4.46,0l0,4.46l4.46,0l0,-4.46zm-5.62,0l-4.46,0l0,4.46l4.46,0l0,-4.46zm0,5.83l-4.46,0l0,4.47l4.46,0l0,-4.47zm5.62,0l-4.46,0l0,4.47l4.46,0l0,-4.47z" display="inline" fill-rule="evenodd" id="svg_100"/>
   <path clip-rule="evenodd" d="m72.36,54.86l-4.74,0.01l0,43.67c0,0.8 -0.65,1.46 -1.46,1.46l-22.02,0c0.25,-0.5 0.41,-1.05 0.41,-1.65l0,-13.33l2.5,-0.01c0.95,0 1.8,-0.61 2.11,-1.51c0.31,-0.91 0.01,-1.91 -0.74,-2.5l-18.28,-14.17l0,-11.96l-4.74,-0.01l23.64,-18.08l23.32,18.08zm-18.44,0.53l-4.46,0l0,4.47l4.46,0l0,-4.47zm-5.62,0l-4.46,0l0,4.47l4.46,0l0,-4.47zm0,5.84l-4.46,0l0,4.46l4.46,0l0,-4.46zm5.62,0l-4.46,0l0,4.46l4.46,0l0,-4.46z" display="inline" fill-rule="evenodd" id="svg_101"/>
   <path clip-rule="evenodd" d="m42.3,82.96c0,0.02 0.01,0.03 0.01,0.05l0,15.53c0,0.81 -0.66,1.46 -1.47,1.46l-34.56,0c-0.8,0 -1.46,-0.66 -1.46,-1.46l0,-15.53c0,-0.02 0,-0.03 0,-0.05l-4.74,0l23.64,-18.08l23.32,18.08l-4.74,0zm-13.7,-0.9l-4.46,0l0,4.47l4.46,0l0,-4.47zm-5.62,0l-4.46,0l0,4.47l4.46,0l0,-4.47zm0,5.84l-4.46,0l0,4.46l4.46,0l0,-4.46zm5.62,0l-4.46,0l0,4.46l4.46,0l0,-4.46z" display="inline" fill-rule="evenodd" id="svg_102"/>
  </g>
  <g display="none" id="svg_103">
   <g display="inline" id="svg_104">
    <path clip-rule="evenodd" d="m100,33.71c-0.05,1.12 -0.09,2.23 -0.14,3.35c-0.39,8.28 -3.83,15.13 -9.88,20.7c-5.09,4.69 -10.8,8.49 -17,11.53c-8.18,4.01 -16.36,8.03 -24.6,11.9c-7.76,3.65 -12.44,6.54 -18.92,11.33c-2.75,2.04 -4.85,4.5 -6.96,7.12c0.25,-0.44 0.48,-0.9 0.75,-1.32c2.88,-4.38 6.7,-7.83 10.8,-11c5.93,-4.58 12.46,-8.19 19.02,-11.74c7.3,-3.95 14.76,-7.64 21.85,-11.92c6.13,-3.7 11.8,-8.11 15.91,-14.18c2.62,-3.86 3.58,-8.18 3.57,-12.76c-0.01,-5.22 -1.06,-10.21 -3.6,-14.81c-4.31,-7.82 -11.07,-11.72 -19.91,-12.14c-3.19,-0.15 -6.26,0.4 -9.16,1.76c-0.07,0.04 -0.15,0.03 -0.29,-0.1c0.86,-0.33 1.71,-0.69 2.58,-0.97c0.87,-0.28 1.77,-0.48 2.64,-0.76c-5.24,0.69 -9.46,3.25 -12.61,7.38c-2.2,2.88 -4,6.08 -5.97,9.15c-0.16,0.25 -0.32,0.51 -0.58,0.93c-0.39,-1.44 -0.7,-2.71 -1.07,-3.96c-0.6,-2.01 -1.05,-4.1 -1.91,-6c-2.91,-6.46 -8.17,-9.72 -15.07,-10.19c-9.21,-0.64 -16.12,3.32 -20.8,11.17c-2.64,4.41 -4.02,9.2 -3.6,14.39c0.31,3.77 1.78,7.15 3.67,10.38c2.77,4.73 6.22,8.98 9.58,13.29c1.31,1.68 2.55,3.42 3.72,5.24c-0.06,-0.02 -0.13,-0.03 -0.16,-0.07c-3.36,-4.38 -6.76,-8.74 -10.08,-13.16c-2.45,-3.26 -4.6,-6.71 -5.99,-10.58c-1.72,-4.82 -1.52,-9.63 0.09,-14.43c0.17,-0.53 0.36,-1.06 0.54,-1.59c0.01,-0.04 -0.05,-0.1 -0.3,-0.21c-0.52,1.81 -1.13,3.6 -1.53,5.43c-1.35,6.18 0.27,11.8 3.5,17.03c1.48,2.41 3.18,4.68 4.66,6.84c0.02,0.48 -0.08,0.86 0.06,1.1c0.48,0.81 0.99,1.61 1.58,2.35c0.95,1.21 1.95,2.38 2.96,3.55c0.81,0.94 1.68,1.82 2.47,2.77c0.36,0.44 0.6,0.99 0.81,1.56c-1.44,-1.63 -2.87,-3.25 -4.31,-4.87c-1.7,-1.91 -3.47,-3.77 -5.11,-5.74c-2.55,-3.06 -4.91,-6.26 -6.77,-9.81c-3.19,-6.06 -3.73,-12.35 -1.84,-18.91c1.32,-4.6 3.39,-8.78 6.56,-12.39c0.06,-0.07 0.1,-0.17 0.16,-0.25c-0.06,-0.04 -0.11,-0.09 -0.17,-0.13c-0.87,1.07 -1.79,2.11 -2.6,3.23c-1.6,2.18 -2.72,4.62 -3.81,7.1c-1.98,4.5 -2.41,9.15 -1.6,13.95c0.21,1.24 0.62,2.45 0.93,3.67l0.02,-0.02c-0.35,-0.99 -0.79,-1.95 -1.01,-2.96c-1.28,-5.84 -0.3,-11.44 2.07,-16.82c2.05,-4.64 4.75,-8.76 9.06,-11.66c4.92,-3.31 10.33,-4.81 16.22,-4.65c4.51,0.12 8.82,1.08 12.6,3.63c1.72,1.16 3.18,2.72 4.76,4.1c0.25,0.23 0.5,0.47 0.82,0.63c-1.02,-1.69 -2.35,-3.11 -3.91,-4.28c-5.59,-4.2 -11.93,-5.63 -18.76,-4.63c-10.79,1.59 -17.73,8.03 -21.75,17.89c-1.77,4.36 -2.44,8.91 -1.91,13.61c0.04,0.32 -0.02,0.66 -0.04,0.99c-0.12,-1.17 -0.24,-2.34 -0.37,-3.52c0.03,-0.25 0.09,-0.49 0.08,-0.74c-0.03,-4.18 0.81,-8.19 2.45,-12.03c3.36,-7.86 8.89,-13.44 17.15,-16.08c1.25,-0.41 2.54,-0.69 3.81,-1.03c1.12,-0.12 2.23,-0.23 3.35,-0.35c0.81,0.04 1.62,0.07 2.43,0.11c8.36,0.48 15.11,3.84 19.71,11.03c0.28,0.44 0.56,0.88 0.85,1.34c1.77,-2.14 3.85,-3.79 6.15,-5.17c5.69,-3.42 11.88,-4.5 18.37,-3.35c12.15,2.14 20.31,9.03 24.14,20.84c0.49,1.49 0.8,3.03 1.19,4.55c0.15,1.45 0.3,2.91 0.45,4.36zm-91.66,12.39c-0.96,-1.86 -1.98,-3.69 -2.89,-5.58c-1.46,-3.05 -2.33,-6.26 -2.37,-9.65c-0.05,-4.47 1.13,-8.65 3.15,-12.61c0.1,-0.2 0.18,-0.42 0.35,-0.82c-1.78,1.64 -3.69,7.82 -3.81,12.45c-0.16,6.08 2.19,11.34 5.57,16.21zm31.5,-35.7c-4.49,-4.88 -17.89,-5.52 -23.02,-1.12c7.91,-3.71 15.58,-3.81 23.02,1.12z" fill-rule="evenodd" id="svg_105"/>
    <path clip-rule="evenodd" d="m2.07,37.91c0.49,1.13 0.97,2.26 1.46,3.39c-0.08,0.03 -0.16,0.06 -0.23,0.09c-0.41,-1.17 -0.81,-2.33 -1.22,-3.49c0.01,0 -0.01,0.01 -0.01,0.01z" fill-rule="evenodd" id="svg_106"/>
   </g>
  </g>
  <g display="none" id="svg_107">
   <path d="m47.02,94.3c-0.9,0 -6.66,-0.21 -7.75,-0.68c-1.09,-0.46 -0.93,-1.87 -0.93,-1.87s-0.9,-39.42 -0.98,-42.65c-0.08,-3.23 -0.04,-3.93 0.82,-6.74c0.86,-2.8 4.63,-4.63 5.1,-5.33c0.47,-0.71 0.59,-4.99 0.59,-4.99s0.27,-10.55 0.27,-10.79s-0.27,-0.5 -0.27,-0.5l0,-1.83c0,0 0.19,-0.35 0.19,-0.55c0,-0.19 0.08,-1.09 0.35,-1.28c0.27,-0.2 1.95,-0.35 1.95,-0.35s0.32,-0.03 1.14,-0.03c0.82,0 1.26,0.03 1.26,0.03s1.67,0.15 1.94,0.35c0.27,0.19 0.35,1.09 0.35,1.28c0,0.2 0.2,0.55 0.2,0.55l0,1.83c0,0 -0.28,0.27 -0.28,0.5s0.28,10.79 0.28,10.79s0.11,4.29 0.58,4.99c0.47,0.7 4.25,2.53 5.1,5.33c0.86,2.81 0.9,3.51 0.82,6.74c-0.08,3.23 -0.97,42.65 -0.97,42.65s0.15,1.41 -0.94,1.87c-1.09,0.47 -6.54,0.68 -7.44,0.68l-1.38,0z" display="inline" id="svg_108"/>
   <g display="inline" id="svg_109">
    <path d="m45.73,50.69c-0.16,-7.42 1.41,-13.99 4.52,-19.79c-0.07,-2.83 -0.38,-9.45 -0.38,-9.64c0,-0.33 0.13,-0.62 0.13,-0.84l0,-1.28c0,-0.23 -0.05,-0.5 -0.05,-0.77c0,-0.11 0.04,-0.32 0.01,-0.49c-0.32,-0.06 -0.83,-0.14 -1.33,-0.19c0.01,0.01 -0.39,-0.02 -1.15,-0.02c-0.74,0 -1.03,0.02 -1.06,0.03c-0.49,0.04 -1.03,0.12 -1.34,0.18c-0.04,0.17 0.02,0.38 0.02,0.49c0,0.27 -0.1,0.54 -0.1,0.77l0,1.28c0,0.21 0.19,0.5 0.19,0.83c0,0.24 -0.29,9.73 -0.32,10.82c-0.06,2.08 -0.26,4.72 -0.77,5.49c-0.23,0.35 -0.68,0.66 -1.34,1.14c-0.13,0.09 -0.27,0.19 -0.41,0.3c-0.51,3.89 -1.92,7.46 -4.01,10.79c0.05,1.92 0.15,6.67 0.28,12.3c0.26,-0.15 0.52,-0.31 0.78,-0.46c4.36,-2.5 6.44,-6 6.33,-10.94z" fill="none" id="svg_110"/>
    <path d="m38.73,66.7c0.27,11.77 0.57,25.03 0.57,25.03c0,0.04 0,0.08 -0.01,0.13c0,0 -0.06,0.53 0.36,0.71c0.77,0.33 5.91,0.43 7.37,0.43l1.38,0c1.33,0 6.26,-0.09 7.06,-0.43c0.42,-0.18 0.36,-0.8 0.36,-0.81c0,-0.03 0,-0.04 0,-0.07c0,0 0.55,-24.42 0.83,-36.39c-0.01,0 -0.01,0.01 -0.01,0.02c-5.97,3.79 -11.94,7.59 -17.91,11.38z" fill="none" id="svg_111"/>
    <path d="m26.97,69.71c-2.78,1.66 -3.21,3.81 -2.43,6.79c1.82,-1.43 3.45,-2.94 5.29,-4.12c2.33,-1.5 4.67,-2.98 7,-4.47c-0.03,-1.58 -0.07,-3.14 -0.1,-4.64c-3.28,2.1 -6.41,4.45 -9.76,6.44z" id="svg_112"/>
    <path d="m75.1,-2c-0.16,0 -0.32,0 -0.47,0c-0.49,2 -0.68,4.41 -1.51,6.32c-2.3,5.28 -6.48,9.19 -10.88,12.65c-4.12,3.23 -7.52,6.83 -10.14,10.78c0.04,1.64 0.08,3.24 0.11,4.25c0.05,1.82 0.24,4.08 0.44,4.52c0.06,0.05 0.49,0.37 0.83,0.61c1.37,0.99 3.67,2.65 4.37,4.95c0.88,2.89 0.94,3.71 0.86,7.04c-0.01,0.59 -0.06,2.37 -0.11,4.89c8.6,-6.07 14.25,-14.46 16.9,-24.82c2.66,-10.36 1.86,-20.19 -0.4,-31.19z" id="svg_113"/>
    <path d="m39.1,42.64c-0.82,2.67 -0.85,3.23 -0.78,6.44c0.01,0.15 0.01,0.39 0.02,0.71c2.09,-3.33 3.49,-6.9 4,-10.79c-1.22,0.89 -2.78,2.14 -3.24,3.64z" id="svg_114"/>
    <path d="m37.26,42.08c0.7,-2.3 3,-3.95 4.37,-4.94c0.34,-0.25 0.77,-0.56 0.87,-0.67c0.02,-0.03 0.03,-0.09 0.04,-0.15c0.04,-1.31 -0.02,-2.64 -0.19,-4.02c-0.76,-6.05 -3.02,-11.3 -8.18,-15.29c0.04,0.5 0.04,0.71 0.07,0.93c0.83,5.74 0.48,11.33 -2.57,16.44c-1.93,3.21 -4.01,6.34 -6.13,9.44c-4.27,6.27 -6.95,13.1 -7.23,20.71c-0.21,5.9 0.92,11.58 3.94,16.75c0.38,0.64 1.16,1.04 1.76,1.55c0.16,-0.19 0.32,-0.38 0.47,-0.56c-0.16,-0.44 -0.29,-0.88 -0.48,-1.31c-3.11,-7.25 -2.03,-12.99 3.45,-18.61c2.29,-2.35 4.54,-4.74 6.75,-7.16c0.81,-0.89 1.57,-1.8 2.28,-2.73c-0.04,-1.68 -0.07,-2.88 -0.08,-3.33c-0.08,-3.34 -0.02,-4.16 0.86,-7.05z" id="svg_115"/>
    <path d="m57.85,42.08c-0.7,-2.3 -3,-3.95 -4.37,-4.94c-0.34,-0.25 -0.77,-0.56 -0.83,-0.61c-0.2,-0.44 -0.39,-2.69 -0.44,-4.51c-0.03,-1.01 -0.07,-2.59 -0.11,-4.23c-0.07,-2.75 -0.25,-5.66 -0.26,-6.38c0.17,-0.18 0.16,-0.41 0.16,-0.66l0,-1.83c0,-0.16 0.06,-0.32 -0.02,-0.47c-0.02,-0.03 0,-0.11 -0.02,-0.16c-0.01,-0.38 -0.07,-1.51 -0.73,-1.99c-0.15,-0.11 -0.47,-0.34 -2.43,-0.52c0,0 -0.46,-0.03 -1.31,-0.03c-0.87,0 -1.21,0.03 -1.22,0.03c-1.94,0.18 -2.26,0.41 -2.42,0.53c-0.66,0.47 -0.74,1.6 -0.75,1.98c-0.02,0.04 0,0.11 -0.03,0.16c-0.08,0.14 -0.07,0.3 -0.07,0.47l0,1.83c0,0.23 0.07,0.49 0.22,0.67c-0.02,1.19 -0.22,7.91 -0.29,10.6c-0.05,1.67 -0.22,3.68 -0.37,4.3c-0.02,0.05 -0.04,0.12 -0.05,0.15c-0.1,0.11 -0.53,0.42 -0.88,0.67c-1.37,0.99 -3.66,2.64 -4.37,4.94c-0.88,2.89 -0.94,3.71 -0.86,7.04c0.01,0.46 0.04,1.65 0.08,3.34c0.06,2.63 0.15,6.5 0.25,10.81c0.03,1.5 0.07,3.06 0.1,4.64c0.25,11.01 0.52,22.89 0.55,23.81c-0.07,0.8 0.17,2.08 1.51,2.65c1.44,0.62 8.06,0.63 8.13,0.63l1.38,0c0.06,0 6.38,-0.01 7.82,-0.63c1.34,-0.57 1.59,-1.92 1.52,-2.72c0.03,-1.35 0.61,-26.62 0.86,-37.67c0.06,-2.52 0.1,-4.29 0.11,-4.87c0.08,-3.33 0.02,-4.14 -0.86,-7.03zm-2.03,49.65c0,0.04 0,0.08 0,0.12c0,0 0.06,0.54 -0.36,0.72c-0.8,0.34 -5.73,0.43 -7.06,0.43l-1.38,0c-1.46,0 -6.6,-0.1 -7.37,-0.43c-0.42,-0.18 -0.36,-0.8 -0.36,-0.8c0.01,-0.04 0.01,-0.04 0.01,-0.08c0,0 -0.3,-13.24 -0.57,-25.01c-0.04,-1.58 -0.07,-3.11 -0.11,-4.6c-0.13,-5.64 -0.23,-10.37 -0.28,-12.3c-0.01,-0.31 -0.01,-0.55 -0.02,-0.71c-0.07,-3.2 -0.04,-3.77 0.78,-6.43c0.46,-1.51 2.02,-2.75 3.24,-3.65c0.14,-0.1 0.28,-0.2 0.41,-0.29c0.66,-0.48 1.1,-0.79 1.33,-1.14c0.51,-0.77 0.69,-3.41 0.75,-5.49c0.02,-1.09 0.36,-10.58 0.36,-10.82c0,-0.33 -0.19,-0.62 -0.19,-0.84l0,-1.27c0,-0.23 0.11,-0.5 0.11,-0.77c0,-0.11 -0.02,-0.33 0.02,-0.49c0.31,-0.07 0.83,-0.14 1.32,-0.19c0.03,0 0.32,-0.02 1.06,-0.02c0.76,0 1.18,0.03 1.16,0.02c0.5,0.05 1.05,0.12 1.36,0.19c0.04,0.16 -0.08,0.38 -0.08,0.49c0,0.27 0.05,0.54 0.05,0.77l0,1.28c0,0.21 -0.13,0.5 -0.13,0.83c0,0.2 0.24,6.81 0.31,9.64c0.02,0.57 0.07,1 0.07,1.18c0.06,2.08 0.25,4.72 0.77,5.49c0.23,0.35 0.67,0.66 1.33,1.14c1.25,0.9 3.15,2.26 3.66,3.94c0.81,2.67 0.86,3.24 0.78,6.44c-0.02,0.68 -0.07,3.01 -0.14,6.24c-0.28,11.97 -0.83,36.41 -0.83,36.41z" fill="#000000" id="svg_116"/>
   </g>
   <path clip-rule="evenodd" d="m52.53,101.12c-5.07,-0.83 -7.53,-1.43 -12.06,-3.48c-1.73,-0.59 -3.2,-1.94 -5.01,-3.09c1.96,-1.23 3.39,-1.12 5.14,-0.25c11.09,5.51 31.52,1.28 38.36,-13.54c0.49,-1.06 0.84,-2.19 1.41,-3.7c-6.63,-0.18 -12.25,2.18 -18.28,4.11c0.49,1.19 0.93,2.24 1.54,3.71c-4.87,-1.37 -9.41,-2.66 -14.29,-4.04c1.72,-4.66 3.38,-9.14 5.16,-13.95c0.84,1.52 1.48,2.68 2.11,3.82c3.52,-0.97 6.9,-2.17 10.39,-2.76c2.87,-0.49 5.88,-0.47 8.8,-0.25c2.12,0.15 3.79,1.43 4.8,3.5c1.28,2.65 2.73,5.22 4.11,7.82c0,0.96 0,1.92 0,2.88c-4.1,7.84 -10.3,13.44 -18.56,16.49c-3.58,1.33 -7.47,1.84 -11.22,2.73c-0.8,0 -1.6,0 -2.4,0z" display="inline" fill-rule="evenodd" id="svg_117"/>
   <path d="m54.93,102.08l-2.4,0c-0.05,0 -0.11,-0.01 -0.16,-0.02c-5.21,-0.84 -7.72,-1.47 -12.29,-3.54c-1.23,-0.42 -2.34,-1.21 -3.53,-2.05c-0.51,-0.37 -1.04,-0.75 -1.61,-1.11c-0.28,-0.17 -0.45,-0.48 -0.45,-0.81c0,-0.33 0.17,-0.63 0.45,-0.81c2.13,-1.34 3.78,-1.45 6.09,-0.3c2.92,1.45 6.57,2.22 10.56,2.22c9.67,0 21.62,-4.73 26.5,-15.3c0.3,-0.67 0.56,-1.38 0.86,-2.21c0.02,-0.04 0.03,-0.09 0.05,-0.13c-4.84,0.12 -9.15,1.57 -13.71,3.1c-0.63,0.22 -1.27,0.43 -1.91,0.64l1.14,2.76c0.15,0.34 0.08,0.73 -0.16,1c-0.25,0.28 -0.63,0.39 -0.98,0.29l-14.3,-4.04c-0.26,-0.08 -0.48,-0.25 -0.6,-0.49c-0.12,-0.24 -0.14,-0.52 -0.04,-0.77l5.17,-13.96c0.13,-0.35 0.45,-0.6 0.83,-0.62c0.38,-0.04 0.73,0.16 0.91,0.49l1.74,3.16c0.81,-0.23 1.61,-0.47 2.41,-0.71c2.39,-0.71 4.85,-1.45 7.34,-1.87c2.59,-0.44 5.42,-0.52 9.03,-0.26c2.43,0.18 4.42,1.61 5.6,4.05c0.88,1.82 1.87,3.65 2.83,5.42c0.42,0.79 0.85,1.57 1.26,2.36c0.08,0.14 0.12,0.29 0.12,0.45l0,2.88c0,0.16 -0.04,0.31 -0.11,0.45c-4.27,8.13 -10.68,13.83 -19.08,16.94c-2.54,0.94 -5.23,1.49 -7.83,2.01c-1.18,0.24 -2.35,0.48 -3.51,0.75c-0.07,0.02 -0.15,0.03 -0.22,0.03zm-2.33,-1.92l2.22,0c1.14,-0.27 2.3,-0.5 3.45,-0.74c2.53,-0.51 5.15,-1.04 7.55,-1.93c7.87,-2.91 13.9,-8.24 17.93,-15.83l0,-2.4c-0.38,-0.71 -0.76,-1.42 -1.14,-2.13c-0.97,-1.79 -1.97,-3.64 -2.88,-5.51c-0.61,-1.26 -1.8,-2.8 -4,-2.96c-3.45,-0.25 -6.14,-0.18 -8.57,0.24c-2.37,0.4 -4.67,1.09 -7.11,1.81c-1.05,0.32 -2.11,0.63 -3.18,0.93c-0.43,0.12 -0.89,-0.08 -1.1,-0.46l-1.09,-1.99l-4.08,11.01l11.38,3.22l-0.78,-1.88c-0.1,-0.25 -0.09,-0.53 0.02,-0.77c0.11,-0.24 0.32,-0.43 0.58,-0.51c0.97,-0.31 1.93,-0.64 2.88,-0.96c4.91,-1.65 9.98,-3.35 15.72,-3.2c0.31,0.01 0.6,0.17 0.77,0.42c0.17,0.26 0.21,0.59 0.1,0.88c-0.19,0.5 -0.36,0.97 -0.51,1.4c-0.32,0.87 -0.59,1.62 -0.93,2.36c-5.23,11.34 -17.96,16.42 -28.24,16.42c-4.29,0 -8.23,-0.84 -11.42,-2.42c-1.13,-0.57 -1.89,-0.7 -2.78,-0.46c0.09,0.07 0.19,0.14 0.28,0.2c1.06,0.76 2.07,1.48 3.11,1.83c4.47,2.02 6.77,2.6 11.82,3.43z" display="inline" fill="#000000" id="svg_118"/>
   <g display="inline" id="svg_119">
    <path clip-rule="evenodd" d="m33.66,81.37c-0.34,-0.95 -0.62,-1.76 -1.04,-2.98c4.04,1.12 7.82,2.17 11.76,3.26c-1.47,3.84 -2.88,7.5 -4.29,11.16c-0.97,-3.54 -3.05,-2.7 -5.28,-1.8c-3.97,1.6 -8.09,2.34 -12.38,1.86c-2.09,-0.23 -3.78,-1.05 -4.65,-3.17c-0.55,-1.32 -1.32,-2.55 -1.99,-3.82c-1.98,-3.78 -1.75,-5.08 1.56,-8.4c0.99,2.36 2.99,4.49 0.44,7.57c6.04,0.16 10.91,-1.75 15.87,-3.68z" fill-rule="evenodd" id="svg_120"/>
    <path d="m25.02,93.97c-0.9,0 -1.8,-0.05 -2.69,-0.15c-2.74,-0.3 -4.52,-1.53 -5.44,-3.76c-0.35,-0.84 -0.8,-1.64 -1.27,-2.49c-0.23,-0.41 -0.46,-0.82 -0.68,-1.24c-2.18,-4.15 -1.86,-5.94 1.73,-9.53c0.22,-0.23 0.55,-0.33 0.86,-0.27c0.32,0.07 0.58,0.28 0.7,0.58c0.18,0.41 0.38,0.81 0.59,1.22c0.8,1.58 1.76,3.47 0.72,5.75c4.74,-0.19 8.74,-1.66 12.9,-3.27l-0.73,-2.1c-0.12,-0.34 -0.04,-0.71 0.21,-0.98c0.24,-0.26 0.61,-0.36 0.95,-0.27l11.76,3.27c0.26,0.07 0.48,0.25 0.6,0.49c0.13,0.24 0.14,0.52 0.04,0.78l-4.28,11.16c-0.15,0.38 -0.53,0.63 -0.94,0.61c-0.42,-0.02 -0.77,-0.3 -0.88,-0.7c-0.52,-1.88 -1.22,-1.88 -1.56,-1.88c-0.66,0 -1.52,0.34 -2.43,0.71c-3.43,1.38 -6.84,2.07 -10.16,2.07zm-7.94,-14.82c-2.06,2.26 -2,3.3 -0.44,6.29c0.21,0.4 0.43,0.79 0.66,1.19c0.48,0.86 0.98,1.75 1.37,2.7c0.64,1.56 1.83,2.36 3.87,2.58c3.88,0.44 7.87,-0.17 11.91,-1.79c1.06,-0.42 2.13,-0.85 3.16,-0.85c0.97,0 1.77,0.37 2.39,1.13l3.1,-8.1l-8.97,-2.49l0.44,1.25c0.17,0.49 -0.08,1.02 -0.56,1.21l-0.22,0.08c-4.66,1.81 -9.48,3.67 -15.3,3.67l0,0c-0.24,0 -0.48,0 -0.73,0c-0.37,-0.01 -0.7,-0.23 -0.85,-0.57s-0.1,-0.73 0.14,-1.01c1.68,-2.03 1,-3.38 0.05,-5.24c0,-0.02 -0.01,-0.04 -0.02,-0.05z" fill="#000000" id="svg_121"/>
   </g>
   <g display="inline" id="svg_122">
    <path clip-rule="evenodd" d="m52.53,101.12c-5.07,-0.83 -7.53,-1.43 -12.06,-3.48c-1.73,-0.59 -3.2,-1.94 -5.01,-3.09c1.96,-1.23 3.39,-1.12 5.14,-0.25c11.09,5.51 31.52,1.28 38.36,-13.54c0.49,-1.06 0.84,-2.19 1.41,-3.7c-6.63,-0.18 -12.25,2.18 -18.28,4.11c0.49,1.19 0.93,2.24 1.55,3.71c-4.88,-1.37 -9.42,-2.66 -14.3,-4.04c1.72,-4.66 3.38,-9.14 5.17,-13.95c0.84,1.52 1.47,2.68 2.1,3.82c3.53,-0.97 6.91,-2.17 10.39,-2.76c2.87,-0.49 5.88,-0.47 8.8,-0.25c2.12,0.15 3.79,1.43 4.8,3.5c1.28,2.65 2.73,5.22 4.11,7.82c0,0.96 0,1.92 0,2.88c-4.1,7.84 -10.3,13.44 -18.56,16.49c-3.58,1.33 -7.47,1.84 -11.22,2.73c-0.8,0 -1.6,0 -2.4,0z" fill-rule="evenodd" id="svg_123"/>
   </g>
   <g display="inline" id="svg_124">
    <path clip-rule="evenodd" d="m33.66,81.37c-0.34,-0.95 -0.62,-1.76 -1.04,-2.98c4.04,1.12 7.82,2.17 11.76,3.26c-1.47,3.84 -2.88,7.5 -4.29,11.16c-0.97,-3.54 -3.05,-2.7 -5.28,-1.8c-3.97,1.6 -8.09,2.34 -12.38,1.86c-2.09,-0.23 -3.78,-1.05 -4.65,-3.17c-0.54,-1.32 -1.32,-2.55 -1.99,-3.82c-1.98,-3.78 -1.75,-5.08 1.56,-8.4c0.99,2.36 2.99,4.49 0.44,7.57c6.04,0.16 10.91,-1.75 15.87,-3.68z" fill-rule="evenodd" id="svg_125"/>
   </g>
  </g>
  <g display="none" id="svg_126">
   <g display="inline" id="svg_127">
    <path d="m58.74,3.26c0,0 0.99,-0.91 19.85,5.77l19.36,7.03c0,0 1.97,0.44 1.08,4.37l-3.47,14.34c0,0 -0.13,1.15 -2.8,0.52l-14.97,-2.2l0.88,52.86l-23.35,2.88l-2.61,-76.67" fill="#000000" id="svg_128"/>
    <path d="m54.67,89.58l-0.02,-0.73l-2.61,-76.67l1.33,-0.04l2.59,75.94l22.04,-2.72l-0.89,-53.04l15.75,2.3c1.53,0.37 2.01,0.09 2.06,-0.01l3.47,-14.34c0.56,-2.5 -0.15,-3.43 -0.6,-3.57l-19.43,-7.04c-16.78,-5.95 -19.19,-5.81 -19.42,-5.77l-0.08,-0.5l-0.57,-0.62c0.84,-0.79 7.75,1.11 20.52,5.64l19.37,7.02c0.03,0 2.53,0.63 1.5,5.15l-3.47,14.34c-0.01,0.18 -0.19,0.56 -0.58,0.84c-0.64,0.44 -1.65,0.5 -3.02,0.17l-14.14,-2.07l0.88,52.68l-24.68,3.04z" id="svg_129"/>
   </g>
   <g display="inline" id="svg_130">
    <path d="m41.25,2.94l-2.11,0.02c-3.52,-0.67 -35.34,8.91 -35.34,8.91c-4.74,1.18 -3.65,3.55 -3.65,3.55l3.86,15.16c0.39,1.97 1.84,1.66 1.84,1.66l16.02,-0.82l1.09,52.66l27.55,4.63l-3.17,-75.8" fill="#000000" id="svg_131"/>
    <path d="m51.21,89.51l-28.91,-4.87l-1.08,-52.52l-15.3,0.79c-0.21,0.03 -0.84,0.08 -1.45,-0.33c-0.57,-0.37 -0.94,-1 -1.11,-1.87l-3.84,-15.08c-0.1,-0.24 -0.32,-1 0.11,-1.9c0.54,-1.14 1.89,-1.98 4.01,-2.5c3.22,-0.97 31.67,-9.49 35.56,-8.94l2.04,-0.02l0.02,1.34l-2.18,0.02l-0.06,-0.01c-2.46,-0.47 -22.3,5.06 -35.03,8.89c-2.13,0.53 -2.88,1.25 -3.14,1.77c-0.25,0.47 -0.09,0.86 -0.09,0.87l0.04,0.11l3.86,15.15c0.11,0.54 0.29,0.89 0.54,1.06c0.24,0.15 0.51,0.12 0.51,0.12l0.1,-0.02l16.71,-0.86l1.09,52.8l26.2,4.41l-3.14,-74.98l1.33,-0.06l3.21,76.63z" id="svg_132"/>
   </g>
   <g display="inline" id="svg_133">
    <path d="m59.73,0.71c-8.51,5.21 -17.43,-0.71 -17.43,-0.71" fill="#000000" id="svg_134"/>
    <path d="m52.12,3.5c-5.65,0 -10.13,-2.9 -10.19,-2.94l0.74,-1.12c0.08,0.06 8.67,5.62 16.71,0.7l0.7,1.14c-2.7,1.65 -5.45,2.22 -7.96,2.22z" id="svg_135"/>
   </g>
   <g display="inline" id="svg_136">
    <path d="m51.78,5.58c-3.99,0 -7.01,-1.88 -7.05,-1.9l0.25,-0.39c0.06,0.03 5.67,3.51 11.61,0.78l0.19,0.42c-1.73,0.8 -3.44,1.09 -5,1.09z" id="svg_137"/>
   </g>
   <g display="inline" id="svg_138">
    <path d="m8.46,31.63l-0.16,-0.6l0.44,-0.12l0.16,0.6l-0.44,0.12zm-0.33,-1.22l-0.16,-0.62l0.44,-0.12l0.17,0.62l-0.45,0.12zm-0.33,-1.24l-0.17,-0.62l0.45,-0.12l0.17,0.62l-0.45,0.12zm-0.33,-1.24l-0.17,-0.63l0.45,-0.12l0.17,0.63l-0.45,0.12zm-0.33,-1.25l-0.17,-0.62l0.45,-0.12l0.16,0.62l-0.44,0.12zm-0.34,-1.24l-0.16,-0.62l0.45,-0.12l0.16,0.62l-0.45,0.12zm-0.33,-1.24l-0.16,-0.63l0.44,-0.11l0.17,0.62l-0.45,0.12zm-0.33,-1.25l-0.16,-0.62l0.44,-0.12l0.17,0.62l-0.45,0.12zm-0.33,-1.24l-0.17,-0.62l0.45,-0.12l0.17,0.62l-0.45,0.12zm-0.33,-1.24l-0.17,-0.63l0.45,-0.11l0.17,0.62l-0.45,0.12zm-0.33,-1.25l-0.17,-0.62l0.45,-0.12l0.16,0.62l-0.44,0.12zm-0.33,-1.24l-0.17,-0.62l0.45,-0.12l0.16,0.62l-0.44,0.12zm-0.34,-1.24l-0.16,-0.63l0.44,-0.11l0.17,0.62l-0.45,0.12zm-0.33,-1.25l-0.16,-0.62l0.44,-0.12l0.17,0.63l-0.45,0.11zm-0.33,-1.24l-0.16,-0.62l0.44,-0.12l0.17,0.62l-0.45,0.12zm-0.33,-1.24l-0.17,-0.62l0.45,-0.12l0.17,0.62l-0.45,0.12z" id="svg_139"/>
   </g>
   <g display="inline" id="svg_140">
    <path d="m22.17,31.43l-0.45,-0.13c3.16,-11.31 -1.28,-24.11 -1.33,-24.24l0.44,-0.15c0.05,0.13 4.54,13.06 1.34,24.52z" id="svg_141"/>
   </g>
   <g display="inline" id="svg_142">
    <path d="m77.52,33.12c-2.97,-13.87 0.77,-24.08 0.81,-24.19l0.43,0.17c-0.03,0.1 -3.73,10.2 -0.79,23.93l-0.45,0.09z" id="svg_143"/>
   </g>
   <g display="inline" id="svg_144">
    <path d="m92.21,35.14l-0.45,-0.11l0.09,-0.39l0.45,0.11l-0.09,0.39zm0.24,-1.02l-0.45,-0.1l0.15,-0.63l0.45,0.11l-0.15,0.62zm0.31,-1.25l-0.45,-0.1l0.15,-0.63l0.45,0.11l-0.15,0.62zm0.3,-1.25l-0.45,-0.1l0.15,-0.63l0.45,0.11l-0.15,0.62zm0.3,-1.25l-0.45,-0.1l0.15,-0.63l0.45,0.11l-0.15,0.62zm0.31,-1.25l-0.45,-0.11l0.15,-0.62l0.45,0.11l-0.15,0.62zm0.3,-1.25l-0.45,-0.1l0.15,-0.63l0.45,0.11l-0.15,0.62zm0.3,-1.25l-0.45,-0.11l0.15,-0.62l0.45,0.11l-0.15,0.62zm0.31,-1.25l-0.45,-0.11l0.15,-0.62l0.45,0.11l-0.15,0.62zm0.3,-1.25l-0.45,-0.11l0.15,-0.62l0.45,0.11l-0.15,0.62zm0.3,-1.25l-0.45,-0.11l0.15,-0.62l0.45,0.11l-0.15,0.62zm0.3,-1.25l-0.44,-0.11l0.15,-0.62l0.45,0.11l-0.16,0.62zm0.31,-1.25l-0.45,-0.11l0.15,-0.62l0.45,0.11l-0.15,0.62zm0.3,-1.25l-0.45,-0.11l0.15,-0.62l0.45,0.11l-0.15,0.62zm0.3,-1.25l-0.44,-0.11l0.15,-0.62l0.45,0.11l-0.16,0.62zm0.31,-1.25l-0.45,-0.11l0.15,-0.62l0.45,0.11l-0.15,0.62z" id="svg_145"/>
   </g>
   <g display="inline" id="svg_146">
    <path d="m42.9,1.1" fill="none" id="svg_147" stroke="#000000" stroke-width="0.16"/>
   </g>
   <g display="inline" id="svg_148">
    <polygon fill="#000000" id="svg_149" points="42.448,0.108 50.217,11.009 46.796,14.896 38.993,3.976   "/>
    <path d="m46.74,15.97l-8.6,-12.04l4.37,-4.89l8.56,12.01l-4.33,4.92zm-6.89,-11.95l7,9.8l2.52,-2.85l-6.98,-9.79l-2.54,2.84z" id="svg_150"/>
   </g>
   <g display="inline" id="svg_151">
    <polygon fill="#000000" id="svg_152" points="59.813,0.658 50.322,10.997 53.247,15.273 62.77,4.918   "/>
    <path d="m53.17,16.34l-3.7,-5.4l10.42,-11.35l3.73,5.39l-10.45,11.36zm-2,-5.28l2.15,3.14l8.6,-9.34l-2.18,-3.14l-8.57,9.34z" id="svg_153"/>
   </g>
   <g display="inline" id="svg_154">
    <g id="svg_155">
     <circle cx="50.46" cy="17.13" fill="#000000" id="svg_156" r="0.89"/>
     <path d="m50.46,18.16c-0.56,0 -1.01,-0.43 -1.03,-1c-0.01,-0.27 0.09,-0.54 0.28,-0.74c0.19,-0.2 0.44,-0.31 0.72,-0.32c0,0 0,0 0,0c0.59,0 1.04,0.44 1.06,1c0.01,0.57 -0.43,1.04 -1,1.06l-0.03,0zm0,-1.78c-0.23,0 -0.41,0.09 -0.55,0.23c-0.14,0.15 -0.21,0.34 -0.2,0.55c0.01,0.4 0.34,0.73 0.75,0.73l0,0.13l0.02,-0.13c0.42,-0.02 0.74,-0.37 0.73,-0.78c-0.01,-0.41 -0.34,-0.73 -0.75,-0.73z" id="svg_157"/>
    </g>
    <g id="svg_158">
     <circle cx="50.67" cy="24.03" fill="#000000" id="svg_159" r="0.89"/>
     <path d="m50.67,25.06c-0.56,0 -1.01,-0.44 -1.03,-1c-0.02,-0.57 0.43,-1.04 1,-1.06c0,0 0,0 0,0c0.59,0 1.04,0.44 1.06,1c0.01,0.27 -0.09,0.53 -0.28,0.73c-0.18,0.21 -0.44,0.32 -0.72,0.33l-0.03,0zm0,-1.79c-0.44,0.02 -0.77,0.37 -0.75,0.78c0.01,0.41 0.34,0.73 0.75,0.73l0,0.14l0.02,-0.14c0.21,0 0.39,-0.09 0.53,-0.24c0.14,-0.14 0.21,-0.33 0.2,-0.53c-0.01,-0.42 -0.34,-0.74 -0.75,-0.74z" id="svg_160"/>
    </g>
    <g id="svg_161">
     <circle cx="50.88" cy="30.92" fill="#000000" id="svg_162" r="0.89"/>
     <path d="m50.88,31.95c-0.56,0 -1.01,-0.43 -1.03,-0.99c-0.01,-0.28 0.09,-0.54 0.28,-0.74c0.19,-0.2 0.44,-0.32 0.72,-0.33c0,0 0,0 0,0c0.59,0 1.04,0.44 1.06,1c0.01,0.28 -0.09,0.54 -0.28,0.74c-0.19,0.2 -0.44,0.32 -0.72,0.32l-0.03,0zm0,-1.78c-0.22,0.01 -0.41,0.09 -0.55,0.24c-0.14,0.14 -0.21,0.34 -0.2,0.54c0.01,0.41 0.34,0.73 0.75,0.73l0,0.14l0.02,-0.14c0.2,-0.01 0.39,-0.09 0.53,-0.24s0.21,-0.34 0.2,-0.54c-0.01,-0.41 -0.34,-0.73 -0.75,-0.73z" id="svg_163"/>
    </g>
    <g id="svg_164">
     <circle cx="51.09" cy="37.82" fill="#000000" id="svg_165" r="0.89"/>
     <path d="m51.09,38.85c-0.56,0 -1.01,-0.44 -1.03,-1c-0.02,-0.57 0.43,-1.04 1,-1.06c0,0 0,0 0,0c0.59,0 1.05,0.44 1.06,1c0.02,0.57 -0.43,1.04 -1,1.06l-0.03,0zm0,-1.78c-0.44,0.01 -0.76,0.36 -0.75,0.77c0.01,0.41 0.34,0.73 0.75,0.73l0,0.14l0.02,-0.14c0.42,-0.01 0.75,-0.36 0.73,-0.77c-0.01,-0.41 -0.34,-0.73 -0.75,-0.73z" id="svg_166"/>
    </g>
    <g id="svg_167">
     <circle cx="51.3" cy="44.72" fill="#000000" id="svg_168" r="0.89"/>
     <path d="m51.3,45.75c-0.56,0 -1.01,-0.44 -1.03,-1c-0.01,-0.28 0.09,-0.54 0.28,-0.74c0.19,-0.2 0.44,-0.31 0.72,-0.32c0,0 0,0 0,0c0.6,0 1.05,0.44 1.06,1c0.02,0.57 -0.43,1.04 -0.99,1.06l-0.04,0zm0,-1.79c-0.22,0.01 -0.41,0.09 -0.55,0.24c-0.13,0.15 -0.21,0.34 -0.2,0.54c0.01,0.41 0.34,0.73 0.75,0.73l0,0.14l0.03,-0.14c0.41,-0.01 0.74,-0.36 0.73,-0.78c-0.02,-0.41 -0.35,-0.73 -0.76,-0.73z" id="svg_169"/>
    </g>
    <g id="svg_170">
     <path d="m52.41,51.59c0.01,0.49 -0.38,0.9 -0.87,0.91c-0.49,0.02 -0.9,-0.37 -0.92,-0.86c-0.01,-0.49 0.37,-0.9 0.87,-0.92c0.49,-0.01 0.9,0.37 0.92,0.87z" fill="#000000" id="svg_171"/>
     <path d="m51.51,52.64c-0.56,0 -1.01,-0.43 -1.03,-1c-0.01,-0.56 0.44,-1.04 1,-1.06l0,0c0.59,0 1.05,0.44 1.06,1c0.01,0.28 -0.09,0.54 -0.28,0.74c-0.19,0.2 -0.44,0.32 -0.72,0.32l-0.03,0zm0.01,-1.78c-0.44,0.01 -0.77,0.36 -0.76,0.78c0.01,0.41 0.34,0.73 0.75,0.73l0,0.14l0.03,-0.14c0.2,-0.01 0.38,-0.09 0.52,-0.24c0.14,-0.14 0.21,-0.34 0.21,-0.54c-0.02,-0.41 -0.35,-0.73 -0.75,-0.73z" id="svg_172"/>
    </g>
    <g id="svg_173">
     <path d="m52.62,58.48c0.01,0.49 -0.37,0.91 -0.87,0.92c-0.49,0.02 -0.9,-0.37 -0.92,-0.86c-0.01,-0.49 0.37,-0.91 0.87,-0.92c0.49,-0.02 0.9,0.37 0.92,0.86z" fill="#000000" id="svg_174"/>
     <path d="m51.72,59.54c-0.56,0 -1.01,-0.44 -1.02,-1c-0.01,-0.27 0.08,-0.53 0.27,-0.74s0.45,-0.31 0.72,-0.32l0,0c0.59,0 1.05,0.44 1.06,1c0.01,0.27 -0.09,0.54 -0.27,0.74c-0.19,0.2 -0.45,0.31 -0.72,0.32l-0.04,0zm0,-1.78c-0.22,0 -0.41,0.09 -0.54,0.23c-0.14,0.15 -0.21,0.34 -0.21,0.54c0.01,0.41 0.34,0.73 0.75,0.73l0,0.14l0.03,-0.14c0.2,0 0.39,-0.09 0.52,-0.23c0.14,-0.15 0.21,-0.34 0.21,-0.54c-0.02,-0.41 -0.35,-0.73 -0.76,-0.73z" id="svg_175"/>
    </g>
    <g id="svg_176">
     <path d="m52.83,65.38c0.01,0.5 -0.38,0.9 -0.87,0.92c-0.49,0.02 -0.9,-0.37 -0.92,-0.86c-0.01,-0.5 0.37,-0.91 0.87,-0.92c0.49,-0.02 0.9,0.37 0.92,0.86z" fill="#000000" id="svg_177"/>
     <path d="m51.93,66.44c-0.56,0 -1.01,-0.44 -1.02,-1c-0.01,-0.28 0.09,-0.54 0.28,-0.74c0.19,-0.2 0.44,-0.31 0.72,-0.32l0,0c0.58,0 1.04,0.45 1.06,1c0,0.27 -0.1,0.54 -0.28,0.74c-0.19,0.19 -0.45,0.31 -0.72,0.32l-0.04,0zm0.01,-1.79c-0.23,0.01 -0.41,0.09 -0.55,0.24c-0.14,0.14 -0.21,0.34 -0.21,0.54c0.02,0.41 0.34,0.73 0.75,0.73l0,0.14l0.03,-0.14c0.2,-0.01 0.39,-0.09 0.52,-0.24c0.14,-0.14 0.21,-0.33 0.21,-0.54c-0.01,-0.4 -0.35,-0.73 -0.75,-0.73z" id="svg_178"/>
    </g>
    <g id="svg_179">
     <path d="m53.04,72.27c0.01,0.5 -0.37,0.91 -0.87,0.92c-0.49,0.02 -0.9,-0.37 -0.92,-0.86c-0.01,-0.49 0.38,-0.9 0.87,-0.92c0.49,-0.02 0.9,0.37 0.92,0.86z" fill="#000000" id="svg_180"/>
     <path d="m52.14,73.33c-0.56,0 -1.01,-0.44 -1.02,-0.99c-0.02,-0.57 0.43,-1.05 0.99,-1.07c0.01,0 0.01,0 0.01,0c0.59,0 1.04,0.44 1.06,1c0.01,0.28 -0.09,0.54 -0.28,0.74c-0.19,0.2 -0.45,0.31 -0.72,0.32l-0.04,0zm0.01,-1.78c-0.44,0.01 -0.77,0.36 -0.76,0.78c0.02,0.4 0.34,0.72 0.75,0.72l0.03,0c0.2,0 0.39,-0.08 0.52,-0.23c0.14,-0.15 0.21,-0.34 0.21,-0.54c-0.01,-0.41 -0.34,-0.73 -0.75,-0.73z" id="svg_181"/>
    </g>
    <g id="svg_182">
     <circle cx="52.36" cy="79.2" fill="#000000" id="svg_183" r="0.89"/>
     <path d="m52.35,80.23c-0.55,0 -1.01,-0.44 -1.03,-1c-0.01,-0.57 0.44,-1.05 1.01,-1.06c0,0 0,0 0,0c0.59,0 1.04,0.44 1.06,1c0.02,0.57 -0.43,1.04 -1,1.06l-0.04,0zm0.01,-1.79c-0.44,0.02 -0.77,0.37 -0.76,0.78c0.02,0.4 0.35,0.73 0.75,0.73l0,0.14l0.03,-0.14c0.41,-0.01 0.74,-0.36 0.73,-0.77c-0.01,-0.41 -0.34,-0.74 -0.75,-0.74z" id="svg_184"/>
    </g>
   </g>
  </g>
  <g id="svg_185">
   <polygon fill="#ff0000" id="svg_186" points="86.523,72.784 83.763,87.052 53.908,87.052 46.987,87.052 17.134,87.052 14.372,72.784  "/>
   <path d="m100.64,32.04c0,2.09 -1.7,3.78 -3.79,3.78c-0.27,0 -0.53,-0.03 -0.78,-0.08l-8.42,35.35l-73.62,0l-9.12,-34.82c-0.28,0.07 -0.57,0.11 -0.87,0.11c-2.09,0 -3.78,-1.69 -3.78,-3.78c0,-2.09 1.69,-3.79 3.78,-3.79c2.09,0 3.79,1.69 3.79,3.79c0,1 -0.4,1.9 -1.03,2.58l14.59,13.82l3.18,-23.04c-1.85,-0.25 -3.28,-1.82 -3.28,-3.74c0,-2.09 1.69,-3.78 3.78,-3.78s3.79,1.69 3.79,3.78c0,1.35 -0.71,2.52 -1.77,3.19l11.78,18.07l10.64,-26.99c-1.42,-0.55 -2.43,-1.91 -2.43,-3.52c0,-2.09 1.7,-3.79 3.79,-3.79c2.09,0 3.78,1.7 3.78,3.79c0,1.65 -1.06,3.04 -2.54,3.56l10.69,28.79l10.23,-18.88c-1.25,-0.62 -2.11,-1.89 -2.11,-3.38c0,-2.09 1.69,-3.78 3.78,-3.78c2.09,0 3.79,1.69 3.79,3.78c0,1.82 -1.28,3.34 -2.99,3.7l4.79,23.16l14.18,-14.97c-0.85,-0.69 -1.4,-1.73 -1.4,-2.91c0,-2.1 1.69,-3.79 3.78,-3.79c2.09,0 3.79,1.69 3.79,3.79zm-27.69,10.61c-0.46,11.25 -0.84,11.63 -12.09,12.09c11.25,0.46 11.63,0.84 12.09,12.09c0.47,-11.25 0.84,-11.63 12.09,-12.09c-11.25,-0.46 -11.62,-0.84 -12.09,-12.09zm8.13,14.86c-0.2,4.99 -0.37,5.16 -5.35,5.36c4.98,0.21 5.15,0.38 5.35,5.36c0.21,-4.98 0.38,-5.15 5.37,-5.36c-4.99,-0.2 -5.16,-0.37 -5.37,-5.36z" fill="#ff0000" id="svg_187"/>
  </g>
 </g>
</svg>